<?xml version='1.0' encoding='utf-8'?>
<svg xmlns="http://www.w3.org/2000/svg" version="1.1" id="Layer_1" x="0px" y="0px" width="500px" height="500px" viewBox="0 0 500 500" enable-background="new 0 0 500 500"> <path fill="#2AB89A" d="M465.219,245.949c0,120.987-99.403,219.067-222.03,219.067c-122.629,0-222.037-98.08-222.037-219.067 c0-120.989,99.408-219.069,222.037-219.069C365.815,26.88,465.219,124.959,465.219,245.949z"/> <g id="layer1_1_" transform="translate(0 -801.97)"> <path id="path4158" fill="#FFFFFF" d="M253.491,1225.441l-126.764-154.18l0.733-30.56 c59.491,3.986,105.745-2.134,116.509-56.839l-126.771-0.708l20.524-33.402l101.115,1.416 c-15.406-31.131-57.784-34.97-123.834-32.683l22.719-32.694l214.694-0.31l-21.245,32.285H271.82 c10.839,11.134,18.779,23.945,19.043,34.817l61.554-0.708l-21.245,31.975l-41.036,0.708c-6.41,47.698-51.485,75.938-108.448,82.428 l127.611,158.41l-55.801,0.032l0,0L253.491,1225.441z"/> </g> </svg>